<svg width="500" height="346" viewBox="0 0 500 346" fill="none" xmlns="http://www.w3.org/2000/svg">
<path d="M135.354 171.069V118.541H151.827L164.09 154.615L176.052 118.541H192.156V171.069H181.304V133.747L168.371 171.069H159.44L146.367 134.094V171.069H135.354Z" fill="white"/>
<path d="M228.512 118.449L248.526 171.046H236.402L232.26 159.307H212.686L208.406 171.046H196.605L216.619 118.449H228.512ZM229.484 150.918L222.543 131.367L215.532 150.918H229.484Z" fill="white"/>
<path d="M291.886 134.163H280.965C280.526 128.941 277.194 126.352 270.993 126.352C268.332 126.352 266.25 126.884 264.746 127.947C263.242 129.01 262.502 130.466 262.502 132.338C262.486 132.915 262.588 133.489 262.802 134.025C263.036 134.575 263.421 135.048 263.913 135.388C264.42 135.783 264.962 136.131 265.533 136.428C266.309 136.787 267.114 137.081 267.939 137.306C269.003 137.63 269.952 137.907 270.808 138.161C271.664 138.416 272.89 138.716 274.464 139.132C276.037 139.548 277.425 139.895 278.605 140.241C283.765 141.72 287.621 143.561 290.174 145.764C292.719 147.983 293.968 151.149 293.968 155.286C293.968 158.29 293.344 160.901 292.117 163.143C290.953 165.318 289.238 167.151 287.143 168.458C285.02 169.772 282.7 170.74 280.271 171.324C277.674 171.957 275.008 172.268 272.335 172.248C265.186 172.248 259.609 170.615 255.607 167.349C251.581 164.067 249.568 159.468 249.521 153.506H260.974C261.16 160.092 265.139 163.397 272.867 163.397C275.875 163.397 278.258 162.773 279.993 161.525C281.729 160.277 282.608 158.567 282.608 156.395C282.608 154.569 281.798 153.252 280.202 152.42C278.605 151.588 275.25 150.433 270.114 148.954C269.281 148.769 268.633 148.584 268.193 148.445C266.412 147.96 265.185 147.59 264.491 147.382C263.797 147.174 262.71 146.781 261.206 146.227C260.061 145.851 258.96 145.355 257.92 144.748C257.226 144.309 256.37 143.685 255.375 142.899C254.478 142.244 253.735 141.4 253.2 140.426C252.696 139.41 252.285 138.351 251.974 137.26C251.593 135.93 251.406 134.553 251.419 133.17C251.419 128.409 253.262 124.596 256.949 121.73C260.651 118.888 265.533 117.455 271.641 117.455C277.541 117.455 282.369 118.842 286.125 121.615C289.873 124.365 291.794 128.571 291.886 134.163Z" fill="white"/>
<path d="M339.827 134.163H328.883C328.444 128.941 325.112 126.352 318.911 126.352C316.25 126.352 314.168 126.884 312.664 127.947C311.16 129.01 310.42 130.466 310.42 132.338C310.403 132.915 310.506 133.489 310.72 134.025C310.954 134.575 311.339 135.048 311.831 135.388C312.338 135.783 312.88 136.131 313.451 136.428C314.227 136.787 315.032 137.081 315.857 137.306C316.921 137.63 317.87 137.907 318.726 138.161C319.582 138.416 320.808 138.716 322.382 139.132C323.955 139.548 325.343 139.895 326.523 140.241C331.683 141.72 335.539 143.561 338.092 145.764C340.637 147.983 341.886 151.149 341.886 155.286C341.886 158.29 341.262 160.901 340.035 163.143C338.871 165.318 337.156 167.151 335.061 168.458C332.937 169.772 330.618 170.74 328.189 171.324C325.592 171.956 322.926 172.266 320.253 172.248C313.103 172.248 307.527 170.615 303.525 167.349C299.499 164.067 297.486 159.468 297.439 153.506H308.886C309.071 160.092 313.05 163.397 320.778 163.397C323.786 163.397 326.169 162.773 327.904 161.525C329.64 160.277 330.519 158.567 330.519 156.395C330.519 154.569 329.709 153.252 328.113 152.42C326.516 151.588 323.161 150.433 318.025 148.954C317.192 148.769 316.544 148.584 316.104 148.445C314.323 147.96 313.097 147.59 312.402 147.382C311.708 147.174 310.621 146.781 309.117 146.227C307.972 145.851 306.871 145.355 305.831 144.748C305.137 144.309 304.281 143.685 303.286 142.899C302.389 142.244 301.646 141.4 301.111 140.426C300.607 139.41 300.196 138.351 299.885 137.26C299.504 135.93 299.317 134.553 299.33 133.17C299.33 128.409 301.173 124.596 304.86 121.73C308.562 118.888 313.444 117.455 319.552 117.455C325.452 117.455 330.28 118.842 334.036 121.615C337.807 124.365 339.735 128.571 339.827 134.163Z" fill="white"/>
<path d="M360.441 118.541V171.069H348.85V118.541H360.441Z" fill="white"/>
<path d="M364.953 118.541H376.985L388.808 155.424L400.77 118.541H412.732L395.217 171.069H382.167L364.953 118.541Z" fill="white"/>
<path d="M456.624 118.541V127.993H428.628V139.432H454.334V148.514H428.628V161.433H457.133V171.092H417.168V118.553H456.617L456.624 118.541Z" fill="white"/>
<path d="M135.43 259.602V207.062H156.693C164.868 207.062 171.162 209.327 175.573 213.857C179.969 218.386 182.19 224.88 182.19 233.338C182.19 241.796 179.992 248.29 175.573 252.82C171.154 257.349 164.884 259.614 156.693 259.614H135.43V259.602ZM146.883 250.012H155.305C165.508 250.012 170.606 244.45 170.599 233.327C170.599 227.965 169.334 223.844 166.804 220.963C164.274 218.082 160.449 216.641 155.328 216.641H146.906V250.012H146.883Z" fill="white"/>
<path d="M234.945 207.062L215.371 239.37V259.591H203.987V239.162L184.344 207.062H197.486L209.749 228.092L222.15 207.062H234.945Z" fill="white"/>
<path d="M239.363 259.602V207.062H251.117L272.751 242.259V207.062H283.833V259.591H272.311L250.516 224.325V259.591L239.363 259.602Z" fill="white"/>
<path d="M320.252 207.005L340.266 259.602H328.142L324 247.863H304.426L300.146 259.602H288.322L308.336 207.005H320.252ZM321.224 239.451L314.283 219.9L307.272 239.451H321.224Z" fill="white"/>
<path d="M344.709 259.602V207.062H361.176L373.439 243.137L385.401 207.062H401.504V259.591H390.653V222.269L377.719 259.591H368.788L355.715 222.638V259.591L344.709 259.602Z" fill="white"/>
<path d="M423.307 207.062V259.591H411.715V207.062H423.307Z" fill="white"/>
<path d="M480.478 239.312C479.876 245.898 477.563 251.137 473.537 255.027C469.488 258.909 463.95 260.85 456.924 260.85C449.289 260.85 443.157 258.331 438.484 253.293C433.81 248.256 431.496 241.577 431.496 233.257C431.496 225.4 433.856 218.837 438.553 213.637C443.25 208.438 449.52 205.826 457.364 205.826C463.611 205.826 468.855 207.598 473.097 211.141C477.339 214.685 479.674 219.18 480.101 224.626H468.81C468.208 221.714 466.889 219.472 464.853 217.878C462.817 216.283 460.226 215.474 457.125 215.474C453.932 215.474 451.225 216.376 449.027 218.178C446.891 219.9 445.286 222.192 444.4 224.788C443.497 227.547 443.051 230.435 443.081 233.338C443.081 238.746 444.338 243.06 446.852 246.28C449.374 249.492 452.729 251.11 456.963 251.11C463.997 251.11 468.023 247.181 468.995 239.301L480.478 239.312Z" fill="white"/>
<path d="M69.7428 283.082C71.8252 285.069 73.815 287.126 76.0593 288.906L79.3217 291.679L80.9644 293.065L82.6998 294.36C63.542 279.361 47.9242 259.371 37.6512 236.84C27.3319 214.331 22.311 189.326 23.3059 164.714C24.2314 140.102 31.3346 116.022 43.5512 95.4777C55.6521 74.8176 72.82 57.7858 92.0473 45.815C96.7673 42.6258 107.04 37.7728 112.269 35.6236C123.227 30.9601 134.686 27.5715 146.42 25.5247C158.859 23.3607 171.511 22.6781 184.111 23.491C208.703 25.0761 232.584 32.3805 253.847 44.8213C263.611 50.5525 271.547 56.5379 277.193 60.8825C279.923 63.1703 282.121 64.9729 283.672 66.2208C285.129 67.5381 285.916 68.2545 285.916 68.2545C287.952 70.265 290.104 72.1831 291.191 73.1306C292.232 74.1243 292.464 73.9395 290.659 71.6747C286.818 67.3994 279.923 60.0043 273.098 54.6429C272.265 53.9496 271.455 53.2563 270.691 52.5861C269.882 51.9622 269.072 51.3844 268.331 50.8067C266.827 49.6512 265.462 48.6113 264.305 47.7331C262.015 45.9768 260.488 45.0061 260.58 44.8675C260.603 44.8444 260.927 45.0061 261.46 45.3297C261.992 45.6532 262.778 46.1154 263.681 46.7163C265.439 47.9873 267.776 49.6974 270.136 51.3844C270.367 51.084 273.977 53.5336 278.119 56.5379C280.201 58.0169 282.214 59.8888 284.134 61.4602C285.06 62.2691 285.962 63.0317 286.726 63.725C287.466 64.4645 288.091 65.1116 288.6 65.6662C290.705 67.6998 298.04 74.9563 304.009 83.3913C304.773 84.4312 305.606 85.425 306.3 86.488C306.994 87.5511 307.688 88.6141 308.359 89.6309C309.678 91.7108 311.089 93.6058 312.107 95.4777C314.213 99.1521 315.879 102.041 316.619 103.335C318.655 107.24 318.84 107.148 317.845 104.49C317.36 103.15 316.457 101.186 315.347 98.7361C314.236 96.2865 312.917 93.3516 311.112 90.278C310.233 88.7297 309.331 87.112 308.405 85.4481C307.48 83.7842 306.3 82.1665 305.236 80.4795C304.102 78.8156 303.038 77.0593 301.834 75.4185C300.585 73.7777 299.336 72.16 298.109 70.5192C297.485 69.7104 296.86 68.9015 296.258 68.0927C295.587 67.3301 294.939 66.5675 294.292 65.828C292.973 64.3489 291.7 62.8699 290.451 61.4833C287.906 58.7333 285.337 56.353 283.209 54.2269C278.743 50.1827 278.789 50.1134 280.108 50.8991C281.427 51.6848 283.88 53.4874 283.972 53.3718C281.682 51.3613 279.599 49.7436 277.725 48.1259C275.851 46.5083 274.023 45.1679 272.195 43.7813C271.293 43.088 270.367 42.4178 269.442 41.7014C268.516 40.985 267.568 40.2918 266.504 39.6447C264.421 38.3043 262.2 36.8715 259.609 35.2539C259.498 35.17 259.382 35.0928 259.262 35.0228C259.03 34.8841 258.683 34.6761 258.243 34.4219C257.341 33.9135 256.045 33.174 254.449 32.2496C251.279 30.3315 246.628 28.1361 241.492 25.7096C238.854 24.6234 236.101 23.4679 233.301 22.3124C230.432 21.3187 227.54 20.325 224.717 19.3313C221.871 18.43 219.026 17.7136 216.411 16.951C215.74 16.7661 215.092 16.5812 214.467 16.4195C213.843 16.2577 213.195 16.1422 212.57 16.0035C211.321 15.7262 210.141 15.472 209.03 15.2409L207.827 15.0098C206.994 14.8711 205.698 14.5014 203.824 14.2703C201.95 13.993 199.498 13.6232 196.42 13.1379C194.87 12.8837 193.135 12.7913 191.237 12.5833C189.34 12.4215 187.258 12.1442 184.99 12.0055C178.905 11.7513 178.905 11.89 178.905 12.0286V11.7513C175.874 11.6589 171.316 11.89 166.758 11.89C164.491 11.9824 162.223 12.1904 160.118 12.3291C158.012 12.4677 156.138 12.6064 154.634 12.8837C154.615 12.7926 154.607 12.6994 154.611 12.6064C142.603 14.2703 130.594 16.6506 119.164 20.8565L119.072 20.5792C113.403 22.7515 108.174 24.739 107.688 24.9238C107.664 24.8333 107.625 24.7474 107.572 24.6696C106.161 25.2936 104.426 26.0793 102.621 26.9344C101.719 27.3735 100.793 27.7894 99.8677 28.2285C98.9654 28.7138 98.0861 29.1991 97.2532 29.6613C93.8983 31.5101 91.2143 32.966 91.1449 32.8505C91.196 32.9325 91.2424 33.0173 91.2837 33.1047C70.2981 45.6994 56.9941 58.8257 45.5642 73.0613C37.5546 83.2101 30.8611 94.3292 25.6428 106.154C20.0409 118.87 16.1658 132.277 14.1204 146.019C9.8631 174.051 13.4263 203.723 23.2597 229.352C25.5271 235.014 28.0723 240.537 26.0593 234.783C27.1236 237.625 28.4887 240.352 29.7844 243.102C30.4554 244.466 31.057 245.875 31.7742 247.216L33.9492 251.214C36.7951 256.575 37.8594 257.708 38.7155 258.979C39.1551 259.603 39.6179 260.203 40.3582 261.313C40.7284 261.867 41.168 262.538 41.7233 263.393C42.3249 264.225 43.0422 265.218 43.9214 266.466C71.64 306.446 118.655 332.306 167.313 333.831L176.406 333.993L185.499 333.554C186.263 333.507 187.003 333.484 187.767 333.438L190.034 333.161L194.546 332.629L199.058 332.074L203.523 331.219L207.989 330.364C208.729 330.226 209.47 330.087 210.21 329.925L212.408 329.348L221.2 327.037L229.808 324.148C230.525 323.894 231.242 323.686 231.959 323.408L234.065 322.553L238.276 320.82C239.664 320.242 241.076 319.688 242.464 319.064L246.536 317.053L250.608 315.02C251.279 314.673 251.973 314.349 252.644 313.98L254.611 312.824L262.431 308.202L269.928 303.049C279.742 295.902 288.742 287.703 296.767 278.599C280.317 296.439 265.3 307.324 243.644 317.955C243.551 317.77 243.528 317.723 237.929 319.988C235.846 320.843 233.718 321.721 231.589 322.576C229.414 323.316 227.216 324.055 225.018 324.795C220.645 326.413 216.064 327.406 211.552 328.631L209.863 329.07L208.151 329.394C207.017 329.602 205.86 329.833 204.727 330.041C202.459 330.457 200.215 330.942 197.947 331.266C195.68 331.543 193.436 331.797 191.237 332.074C190.127 332.213 189.039 332.329 187.929 332.467C186.818 332.606 185.731 332.583 184.666 332.652C167.336 333.808 152.251 331.774 143.459 329.787C137.651 328.215 131.659 327.152 114.884 320.635L119.072 322.276L121.177 323.108C121.895 323.362 122.612 323.57 123.329 323.801C126.198 324.703 129.044 325.65 131.913 326.505C131.959 326.366 132.029 326.089 132.029 326.089C120.529 322.784 107.966 317.7 96.3508 310.906C85.1546 304.392 74.8301 296.488 65.6243 287.38L65.9251 287.08C62.9867 284.399 60.4184 281.395 57.7345 278.483C55.9066 276.126 57.318 277.374 60.7192 280.91C61.5753 281.788 62.547 282.828 63.6345 283.96C64.7914 285.046 66.0639 286.225 67.429 287.519C68.8173 288.767 70.2055 290.269 71.8714 291.586C73.491 292.95 75.2032 294.383 76.9848 295.862C84.2499 301.57 92.9265 307.601 101.904 312.2C110.881 316.799 119.766 320.497 126.869 322.53C126.915 322.392 127.008 322.114 127.031 321.999C125.157 321.375 123.26 320.866 121.432 320.15L115.948 318.001L116.064 317.747C131.53 324.024 147.919 327.74 164.583 328.747C180.71 329.694 197.022 328.146 214.097 323.732C212.663 324.102 210.904 324.564 208.938 325.072C206.948 325.442 204.773 325.858 202.621 326.274C198.294 327.222 193.898 327.614 190.983 327.984C190.983 327.915 190.96 327.845 190.243 327.869C189.872 327.892 189.317 327.938 188.507 328.007C188.091 328.053 187.628 328.1 187.05 328.146C186.471 328.192 185.846 328.192 185.106 328.238C197.798 327.277 210.336 324.858 222.473 321.028C235.06 317.053 247.137 311.438 256.994 305.106C259.493 303.557 259.4 303.442 256.809 304.805C255.513 305.475 253.593 306.538 251.025 307.948C249.775 308.711 248.271 309.381 246.628 310.167C244.986 310.952 243.181 311.83 241.214 312.778C240.728 313.032 240.243 313.263 239.757 313.494C239.271 313.725 238.762 313.91 238.276 314.118C237.304 314.511 236.355 314.904 235.407 315.297C233.533 316.083 231.728 316.822 229.946 317.562C226.337 318.833 222.866 319.965 219.396 321.121C215.856 322.045 212.339 322.969 208.637 323.963C206.763 324.31 204.819 324.679 202.829 325.072C201.834 325.257 200.816 325.465 199.775 325.65C198.729 325.879 197.671 326.049 196.605 326.158L196.559 325.881C198.017 325.766 199.521 325.396 201.117 325.119C202.714 324.841 204.356 324.518 206.069 324.194C206.925 324.032 207.781 323.871 208.66 323.709C209.516 323.478 210.372 323.27 211.251 323.039C212.987 322.6 214.768 322.137 216.527 321.675C223.537 319.711 230.432 317.284 235.754 314.881C241.076 312.524 224.833 318.925 230.155 316.591L238.206 313.24C240.867 312.085 243.412 310.652 246.004 309.335L239.942 312.362C237.836 313.356 235.569 314.211 233.324 315.158C232.191 315.62 231.057 316.106 229.9 316.591C228.743 317.076 227.54 317.423 226.36 317.839C223.977 318.648 221.571 319.457 219.164 320.265C216.712 320.913 214.259 321.56 211.83 322.207C210.603 322.507 209.4 322.854 208.197 323.131C206.971 323.362 205.768 323.593 204.565 323.824C202.158 324.263 199.798 324.749 197.485 325.119C195.171 325.373 192.903 325.65 190.752 325.881C189.317 325.997 187.859 326.182 186.517 326.251C185.152 326.274 183.903 326.297 182.792 326.32C180.617 326.343 179.16 326.297 179.16 326.158C166.168 326.685 153.165 325.417 140.52 322.392C129.252 319.826 119.905 315.828 112.2 312.062C110.951 311.368 108.359 310.143 105.004 308.456C103.361 307.532 101.534 306.492 99.5669 305.383C98.5952 304.828 97.5308 304.297 96.5359 303.65C95.541 303.003 94.4998 302.332 93.4355 301.639C89.1551 299.028 84.8747 295.746 80.7562 292.626C78.7664 290.939 76.8228 289.299 74.9718 287.727C72.9126 286.248 71.3161 284.538 69.7428 283.082Z" fill="white"/>
</svg>
