<svg width="153" height="99" viewBox="0 0 153 99" fill="none" xmlns="http://www.w3.org/2000/svg">
<path d="M62.3965 22.8013H67.8725" stroke="#18156E" stroke-miterlimit="10" stroke-linecap="round"/>
<path d="M62.3965 39.3555H67.8725" stroke="#18156E" stroke-miterlimit="10" stroke-linecap="round"/>
<path d="M152.575 98.063H0V5.335C0 4.76572 0.112125 4.20202 0.329979 3.67607C0.547833 3.15012 0.86715 2.67223 1.26969 2.26969C1.67223 1.86715 2.15012 1.54783 2.67606 1.32998C3.20201 1.11212 3.76572 1 4.335 1H148.235C149.385 1 150.487 1.45672 151.3 2.26969C152.113 3.08266 152.57 4.18529 152.57 5.335L152.575 98.063Z" fill="white"/>
<path d="M152.575 11.801H7.44812e-06V4.80898C-0.00104555 4.2432 0.109564 3.68277 0.3255 3.15982C0.541437 2.63687 0.85845 2.16168 1.25838 1.76148C1.6583 1.36127 2.13328 1.04393 2.65608 0.827624C3.17888 0.611324 3.73923 0.500321 4.30501 0.500979H148.27C148.836 0.500322 149.396 0.611221 149.918 0.827334C150.441 1.04345 150.916 1.36053 151.316 1.76042C151.715 2.1603 152.033 2.63514 152.249 3.15775C152.465 3.68035 152.576 4.24045 152.575 4.80598V11.801Z" fill="#18156E"/>
<path d="M13.0926 4.88525H9.68359V8.16125H13.0926V4.88525Z" fill="white"/>
<path d="M17.6473 4.88525H14.2383V8.16125H17.6473V4.88525Z" fill="white"/>
<path d="M22.3445 4.88525H18.9355V8.16125H22.3445V4.88525Z" fill="white"/>
<path d="M14.8906 22.8013H26.0496" stroke="#18156E" stroke-miterlimit="10" stroke-linecap="round"/>
<path d="M41.752 22.8013H59.418" stroke="#18156E" stroke-miterlimit="10" stroke-linecap="round"/>
<path d="M30.6836 22.8013H36.8956" stroke="#18156E" stroke-miterlimit="10" stroke-linecap="round"/>
<path d="M14.7969 27.5439H41.3019" stroke="#18156E" stroke-miterlimit="10" stroke-linecap="round"/>
<path d="M14.7969 32.2539H41.3019" stroke="#18156E" stroke-miterlimit="10" stroke-linecap="round"/>
<path d="M45.877 27.5439H55.331" stroke="#18156E" stroke-miterlimit="10" stroke-linecap="round"/>
<path d="M59.4766 27.5439H73.9746" stroke="#18156E" stroke-miterlimit="10" stroke-linecap="round"/>
<path d="M14.8906 39.3555H26.0496" stroke="#18156E" stroke-miterlimit="10" stroke-linecap="round"/>
<path d="M41.752 39.3555H59.418" stroke="#18156E" stroke-miterlimit="10" stroke-linecap="round"/>
<path d="M30.6836 39.3555H36.8956" stroke="#18156E" stroke-miterlimit="10" stroke-linecap="round"/>
<path d="M14.7656 44.0981H46.0566" stroke="#18156E" stroke-miterlimit="10" stroke-linecap="round"/>
<path d="M14.7969 48.8062H41.3019" stroke="#18156E" stroke-miterlimit="10" stroke-linecap="round"/>
<path d="M50.5898 44.0981H55.3158" stroke="#18156E" stroke-miterlimit="10" stroke-linecap="round"/>
<path d="M59.4766 44.0981H73.9746" stroke="#18156E" stroke-miterlimit="10" stroke-linecap="round"/>
<path d="M80.3613 60.5103H91.5203" stroke="#18156E" stroke-miterlimit="10" stroke-linecap="round"/>
<path d="M116.09 60.5103H124.422" stroke="#18156E" stroke-miterlimit="10" stroke-linecap="round"/>
<path d="M96.0859 60.5103H111.456" stroke="#18156E" stroke-miterlimit="10" stroke-linecap="round"/>
<path d="M80.2344 65.2532H106.739" stroke="#18156E" stroke-miterlimit="10" stroke-linecap="round"/>
<path d="M80.166 69.9612H114.465" stroke="#18156E" stroke-miterlimit="10" stroke-linecap="round"/>
<path d="M110.865 65.2532H120.319" stroke="#18156E" stroke-miterlimit="10" stroke-linecap="round"/>
<path d="M124.639 65.2532H139.137" stroke="#18156E" stroke-miterlimit="10" stroke-linecap="round"/>
<path d="M80.3613 77.0613H91.5203" stroke="#18156E" stroke-miterlimit="10" stroke-linecap="round"/>
<path d="M106.756 77.0613H124.422" stroke="#18156E" stroke-miterlimit="10" stroke-linecap="round"/>
<path d="M96.1621 77.0613H102.374" stroke="#18156E" stroke-miterlimit="10" stroke-linecap="round"/>
<path d="M80.2969 81.8042H99.3239" stroke="#18156E" stroke-miterlimit="10" stroke-linecap="round"/>
<path d="M80.2344 86.5142H106.739" stroke="#18156E" stroke-miterlimit="10" stroke-linecap="round"/>
<path d="M103.811 81.8042H120.322" stroke="#18156E" stroke-miterlimit="10" stroke-linecap="round"/>
<path d="M124.639 81.8042H139.137" stroke="#18156E" stroke-miterlimit="10" stroke-linecap="round"/>
<path d="M139.136 20.396H79.5742V51.206H139.136V20.396Z" fill="#18156E"/>
<path d="M74.1186 58.0613H14.5566V88.8713H74.1186V58.0613Z" fill="#8BB863"/>
</svg>
