<?xml version="1.0" encoding="UTF-8"?> <svg xmlns="http://www.w3.org/2000/svg" xmlns:xlink="http://www.w3.org/1999/xlink" width="418" height="318" viewBox="0 0 418 318"><defs><style> .cls-1, .cls-5 { fill: none; } .cls-2 { fill: #e6e6e6; } .cls-3 { fill: #18156e; } .cls-4 { fill: #fff; } .cls-5 { stroke: #18156e; stroke-linecap: round; stroke-miterlimit: 10; } .cls-6 { fill: #8bb863; } .cls-7 { fill: #8b8b8b; } .cls-8 { fill: #b3b3b3; } .cls-9 { clip-path: url(#clip-path); } </style><clipPath id="clip-path"><rect id="Rectangle_12015" data-name="Rectangle 12015" class="cls-1" width="306.114" height="163.674" transform="translate(0 0)"></rect></clipPath></defs><g id="Group_12357" data-name="Group 12357" transform="translate(-792 -134)"><rect id="Rectangle_19321" data-name="Rectangle 19321" class="cls-1" width="418" height="318" transform="translate(792 134)"></rect><rect id="Rectangle_19321-2" data-name="Rectangle 19321" class="cls-1" width="418" height="318" transform="translate(792 134)"></rect><rect id="Rectangle_20071" data-name="Rectangle 20071" class="cls-1" width="418" height="318" transform="translate(792 134)"></rect><g id="Group_5890" data-name="Group 5890" transform="translate(822.84 145.703)"><path id="Path_14534" data-name="Path 14534" class="cls-2" d="M247.809,109.373H140.1V47.479a4.335,4.335,0,0,1,4.335-4.335h99.043a4.335,4.335,0,0,1,4.335,4.335Z" transform="translate(73.51 -43.142)"></path><path id="Path_14535" data-name="Path 14535" class="cls-3" d="M247.809,51.12H140.1V47.45a4.306,4.306,0,0,1,4.305-4.307h99.1a4.306,4.306,0,0,1,4.305,4.307Z" transform="translate(73.51 -43.143)"></path><rect id="Rectangle_12008" data-name="Rectangle 12008" class="cls-4" width="2.406" height="2.314" transform="translate(220.672 2.388)"></rect><rect id="Rectangle_12009" data-name="Rectangle 12009" class="cls-4" width="2.406" height="2.314" transform="translate(223.891 2.388)"></rect><rect id="Rectangle_12010" data-name="Rectangle 12010" class="cls-4" width="2.406" height="2.314" transform="translate(227.204 2.388)"></rect><line id="Line_639" data-name="Line 639" class="cls-5" x2="6.938" transform="translate(221.836 18.543)"></line><line id="Line_640" data-name="Line 640" class="cls-5" x2="10.982" transform="translate(238.537 18.543)"></line><line id="Line_641" data-name="Line 641" class="cls-5" x2="3.862" transform="translate(231.656 18.543)"></line><line id="Line_642" data-name="Line 642" class="cls-5" x2="4.151" transform="translate(254.406 18.543)"></line><line id="Line_643" data-name="Line 643" class="cls-5" x2="16.479" transform="translate(221.774 22.174)"></line><line id="Line_644" data-name="Line 644" class="cls-5" x2="16.479" transform="translate(221.774 25.779)"></line><line id="Line_645" data-name="Line 645" class="cls-5" x2="5.877" transform="translate(241.102 22.174)"></line><line id="Line_646" data-name="Line 646" class="cls-5" x2="9.013" transform="translate(249.558 22.174)"></line><line id="Line_647" data-name="Line 647" class="cls-5" x2="6.938" transform="translate(221.836 31.215)"></line><line id="Line_648" data-name="Line 648" class="cls-5" x2="10.982" transform="translate(238.537 31.215)"></line><line id="Line_649" data-name="Line 649" class="cls-5" x2="3.862" transform="translate(231.656 31.215)"></line><line id="Line_650" data-name="Line 650" class="cls-5" x2="4.151" transform="translate(254.406 31.215)"></line><line id="Line_651" data-name="Line 651" class="cls-5" x2="19.454" transform="translate(221.754 34.845)"></line><line id="Line_652" data-name="Line 652" class="cls-5" x2="16.479" transform="translate(221.774 38.45)"></line><line id="Line_653" data-name="Line 653" class="cls-5" x2="2.94" transform="translate(244.032 34.845)"></line><line id="Line_654" data-name="Line 654" class="cls-5" x2="9.013" transform="translate(249.558 34.845)"></line><rect id="Rectangle_12011" data-name="Rectangle 12011" class="cls-6" width="45.147" height="30.547" transform="translate(264.482 18.267)"></rect><path id="Path_14536" data-name="Path 14536" class="cls-3" d="M167.029,61.184a7.743,7.743,0,1,1,7.744,7.744,7.744,7.744,0,0,1-7.744-7.744" transform="translate(101.331 -32.792)"></path><path id="Path_14537" data-name="Path 14537" class="cls-6" d="M214.783,222.228l-1.474-4.778.006,0a32.4,32.4,0,0,0,10.772-8.915l4.415,2.334a1.9,1.9,0,0,0,2.567-.792l3.714-7.024a1.9,1.9,0,0,0-.792-2.569l-4.413-2.332,0-.008a32.426,32.426,0,0,0,1.3-13.922v0l4.774-1.472a1.9,1.9,0,0,0,1.255-2.376l-2.34-7.592a1.9,1.9,0,0,0-2.376-1.255l-4.774,1.474a32.423,32.423,0,0,0-8.915-10.77l-.01-.008,2.334-4.415a1.9,1.9,0,0,0-.79-2.567l-7.024-3.712a1.9,1.9,0,0,0-2.569.79l-2.334,4.417a32.826,32.826,0,0,0-13.928-1.321h-.006l-1.468-4.76a1.9,1.9,0,0,0-2.376-1.255l-7.592,2.342a1.9,1.9,0,0,0-1.255,2.376l1.468,4.762a32.512,32.512,0,0,0-10.758,8.933l0,.008-4.425-2.338a1.9,1.9,0,0,0-2.567.792l-3.714,7.022a1.9,1.9,0,0,0,.792,2.569L166.7,178.2v0a32.48,32.48,0,0,0-1.323,13.926l-4.766,1.47a1.9,1.9,0,0,0-1.255,2.376l2.342,7.592a1.9,1.9,0,0,0,2.374,1.255l4.766-1.47v0a32.876,32.876,0,0,0,8.937,10.764l-2.338,4.423a1.9,1.9,0,0,0,.792,2.567l7.024,3.714a1.9,1.9,0,0,0,2.569-.792l2.336-4.423.012,0a32.411,32.411,0,0,0,13.912,1.3l1.476,4.78a1.9,1.9,0,0,0,2.376,1.257l7.592-2.342a1.9,1.9,0,0,0,1.255-2.376M181.507,185.77a16.806,16.806,0,1,1,14.211,19.041,16.793,16.793,0,0,1-14.211-19.041" transform="translate(92.787 60.664)"></path><path id="Path_14538" data-name="Path 14538" class="cls-3" d="M149.89,71.636,143.8,73.749l0-.008a41.824,41.824,0,0,0-11.973-13.477h0l2.807-5.793a2.45,2.45,0,0,0-1.137-3.272l-9.216-4.468A2.451,2.451,0,0,0,121,47.866L118.2,53.659l-.012,0a41.806,41.806,0,0,0-18-1.047h0l-2.111-6.086a2.448,2.448,0,0,0-3.118-1.51l-9.677,3.359a2.447,2.447,0,0,0-1.51,3.116l2.113,6.088A41.792,41.792,0,0,0,72.408,69.546l-.01.012L66.6,66.751a2.45,2.45,0,0,0-3.272,1.135L58.865,77.1A2.449,2.449,0,0,0,60,80.376L65.8,83.185a42.372,42.372,0,0,0-1.077,18l0,.01-6.066,2.105a2.45,2.45,0,0,0-1.512,3.118L60.5,116.1a2.448,2.448,0,0,0,3.116,1.512l6.07-2.107a41.944,41.944,0,0,0,12,13.459l.01.006-2.813,5.807a2.448,2.448,0,0,0,1.135,3.272l9.218,4.468a2.45,2.45,0,0,0,3.272-1.137l2.815-5.807h0a41.9,41.9,0,0,0,18,1.077l2.109,6.076a2.45,2.45,0,0,0,3.118,1.51l9.677-3.359a2.45,2.45,0,0,0,1.51-3.118l-2.109-6.074h0a42.353,42.353,0,0,0,13.467-12l5.805,2.813a2.45,2.45,0,0,0,3.272-1.135l4.468-9.218a2.453,2.453,0,0,0-1.137-3.274l-5.8-2.811,0-.014a41.824,41.824,0,0,0,1.049-17.987l6.1-2.115a2.449,2.449,0,0,0,1.51-3.118l-3.359-9.677a2.449,2.449,0,0,0-3.118-1.51m-44.816,38.442a15.552,15.552,0,1,1,17.15-13.758,15.537,15.537,0,0,1-17.15,13.758" transform="translate(-6.489 -41.401)"></path><path id="Path_14539" data-name="Path 14539" class="cls-7" d="M359.628,265.386H60.176A9.931,9.931,0,0,1,50.3,255.4V79.669a9.931,9.931,0,0,1,9.877-9.984H359.628a9.928,9.928,0,0,1,9.873,9.984V255.4a9.928,9.928,0,0,1-9.873,9.984" transform="translate(-13.233 -17.985)"></path><path id="Path_14540" data-name="Path 14540" class="cls-8" d="M359.628,180.542H60.176a9.931,9.931,0,0,1-9.877-9.984V154.09H369.5v16.469a9.928,9.928,0,0,1-9.873,9.984" transform="translate(-13.18 67.086)"></path><path id="Path_14541" data-name="Path 14541" class="cls-8" d="M110.363,188.278h94.521a6.029,6.029,0,0,1,6.03,6.03v.451H104.333v-.451a6.029,6.029,0,0,1,6.03-6.03" transform="translate(39.06 99.835)"></path><path id="Path_14542" data-name="Path 14542" class="cls-3" d="M128.1,163.37a5.354,5.354,0,1,1,5.354,5.354,5.353,5.353,0,0,1-5.354-5.354" transform="translate(63.026 69.989)"></path><rect id="Rectangle_12012" data-name="Rectangle 12012" class="cls-8" width="69.618" height="42.101" transform="translate(161.906 246.013)"></rect><rect id="Rectangle_12013" data-name="Rectangle 12013" class="cls-4" width="306.114" height="163.672" transform="translate(42.776 57.519)"></rect><g id="Group_5889" data-name="Group 5889" class="cls-9" transform="translate(42.777 57.52)"><path id="Path_14543" data-name="Path 14543" class="cls-6" d="M10.846,254.673C-24.538,185.179,29.5,85.754,131.534,32.6S344.975-7.313,380.359,62.179,361.707,231.1,259.669,284.254,46.23,324.167,10.846,254.673" transform="translate(-105.359 -145.308)"></path></g><line id="Line_655" data-name="Line 655" class="cls-5" x2="5.476" transform="translate(250.134 135.939)"></line><line id="Line_656" data-name="Line 656" class="cls-5" x2="5.476" transform="translate(250.134 152.493)"></line><path id="Path_14544" data-name="Path 14544" class="cls-2" d="M279.77,197.966H127.195V105.238a4.335,4.335,0,0,1,4.335-4.335h143.9a4.335,4.335,0,0,1,4.335,4.335Z" transform="translate(60.543 13.235)"></path><path id="Path_14545" data-name="Path 14545" class="cls-3" d="M279.77,112.2H127.195v-6.992A4.3,4.3,0,0,1,131.5,100.9H275.465a4.3,4.3,0,0,1,4.305,4.305Z" transform="translate(60.543 13.739)"></path><rect id="Rectangle_12016" data-name="Rectangle 12016" class="cls-4" width="3.409" height="3.276" transform="translate(197.421 118.023)"></rect><rect id="Rectangle_12017" data-name="Rectangle 12017" class="cls-4" width="3.409" height="3.276" transform="translate(201.977 118.023)"></rect><rect id="Rectangle_12018" data-name="Rectangle 12018" class="cls-4" width="3.409" height="3.276" transform="translate(206.673 118.023)"></rect><line id="Line_657" data-name="Line 657" class="cls-5" x2="11.159" transform="translate(202.63 135.939)"></line><line id="Line_658" data-name="Line 658" class="cls-5" x2="17.666" transform="translate(229.491 135.939)"></line><line id="Line_659" data-name="Line 659" class="cls-5" x2="6.212" transform="translate(218.421 135.939)"></line><line id="Line_660" data-name="Line 660" class="cls-5" x2="26.505" transform="translate(202.535 140.682)"></line><line id="Line_661" data-name="Line 661" class="cls-5" x2="26.505" transform="translate(202.535 145.392)"></line><line id="Line_662" data-name="Line 662" class="cls-5" x2="9.454" transform="translate(233.616 140.682)"></line><line id="Line_663" data-name="Line 663" class="cls-5" x2="14.498" transform="translate(247.215 140.682)"></line><line id="Line_664" data-name="Line 664" class="cls-5" x2="11.159" transform="translate(202.63 152.493)"></line><line id="Line_665" data-name="Line 665" class="cls-5" x2="17.666" transform="translate(229.491 152.493)"></line><line id="Line_666" data-name="Line 666" class="cls-5" x2="6.212" transform="translate(218.421 152.493)"></line><line id="Line_667" data-name="Line 667" class="cls-5" x2="31.291" transform="translate(202.504 157.236)"></line><line id="Line_668" data-name="Line 668" class="cls-5" x2="26.505" transform="translate(202.535 161.944)"></line><line id="Line_669" data-name="Line 669" class="cls-5" x2="4.726" transform="translate(238.328 157.236)"></line><line id="Line_670" data-name="Line 670" class="cls-5" x2="14.498" transform="translate(247.215 157.236)"></line><line id="Line_671" data-name="Line 671" class="cls-5" x2="11.159" transform="translate(268.099 173.648)"></line><line id="Line_672" data-name="Line 672" class="cls-5" x2="8.332" transform="translate(303.828 173.648)"></line><line id="Line_673" data-name="Line 673" class="cls-5" x2="15.37" transform="translate(283.825 173.648)"></line><line id="Line_674" data-name="Line 674" class="cls-5" x2="26.505" transform="translate(267.973 178.391)"></line><line id="Line_675" data-name="Line 675" class="cls-5" x2="34.299" transform="translate(267.904 183.099)"></line><line id="Line_676" data-name="Line 676" class="cls-5" x2="9.454" transform="translate(298.603 178.391)"></line><line id="Line_677" data-name="Line 677" class="cls-5" x2="14.498" transform="translate(312.377 178.391)"></line><line id="Line_678" data-name="Line 678" class="cls-5" x2="11.159" transform="translate(268.099 190.199)"></line><line id="Line_679" data-name="Line 679" class="cls-5" x2="17.666" transform="translate(294.493 190.199)"></line><line id="Line_680" data-name="Line 680" class="cls-5" x2="6.212" transform="translate(283.901 190.199)"></line><line id="Line_681" data-name="Line 681" class="cls-5" x2="19.027" transform="translate(268.035 194.942)"></line><line id="Line_682" data-name="Line 682" class="cls-5" x2="26.505" transform="translate(267.973 199.652)"></line><line id="Line_683" data-name="Line 683" class="cls-5" x2="16.511" transform="translate(291.548 194.942)"></line><line id="Line_684" data-name="Line 684" class="cls-5" x2="14.498" transform="translate(312.377 194.942)"></line><rect id="Rectangle_12019" data-name="Rectangle 12019" class="cls-3" width="59.562" height="30.81" transform="translate(267.313 133.534)"></rect><rect id="Rectangle_12020" data-name="Rectangle 12020" class="cls-6" width="59.562" height="30.81" transform="translate(202.295 171.199)"></rect><path id="Path_14546" data-name="Path 14546" class="cls-2" d="M201.241,188.879H31.814V87.947a7.426,7.426,0,0,1,7.425-7.425H193.815a7.425,7.425,0,0,1,7.425,7.425Z" transform="translate(-31.814 -6.723)"></path><line id="Line_685" data-name="Line 685" class="cls-5" x2="6.938" transform="translate(10.924 120.301)"></line><line id="Line_686" data-name="Line 686" class="cls-5" x2="10.982" transform="translate(27.823 120.301)"></line><line id="Line_687" data-name="Line 687" class="cls-5" x2="3.862" transform="translate(20.822 120.301)"></line><line id="Line_688" data-name="Line 688" class="cls-5" x2="2.294" transform="translate(41.628 120.301)"></line><line id="Line_689" data-name="Line 689" class="cls-5" x2="16.479" transform="translate(10.924 125.787)"></line><line id="Line_690" data-name="Line 690" class="cls-5" x2="5.877" transform="translate(30.378 125.787)"></line><line id="Line_691" data-name="Line 691" class="cls-5" x2="4.981" transform="translate(38.942 125.787)"></line><line id="Line_692" data-name="Line 692" class="cls-5" x2="8.881" transform="translate(10.924 131.272)"></line><line id="Line_693" data-name="Line 693" class="cls-5" x2="5.069" transform="translate(22.753 131.272)"></line><line id="Line_694" data-name="Line 694" class="cls-5" x2="4.981" transform="translate(38.942 131.272)"></line><line id="Line_695" data-name="Line 695" class="cls-5" x2="4.981" transform="translate(30.827 131.272)"></line><line id="Line_696" data-name="Line 696" class="cls-5" x2="2.717" transform="translate(10.924 136.76)"></line><line id="Line_697" data-name="Line 697" class="cls-5" x2="2.717" transform="translate(16.446 136.76)"></line><line id="Line_698" data-name="Line 698" class="cls-5" x2="0.854" transform="translate(22.142 136.76)"></line><line id="Line_699" data-name="Line 699" class="cls-5" x2="10.966" transform="translate(25.287 136.76)"></line><line id="Line_700" data-name="Line 700" class="cls-5" x2="4.981" transform="translate(38.942 136.76)"></line><line id="Line_701" data-name="Line 701" class="cls-5" x1="6.938" transform="translate(76.14 136.76)"></line><line id="Line_702" data-name="Line 702" class="cls-5" x1="5.492" transform="translate(55.962 136.76)"></line><line id="Line_703" data-name="Line 703" class="cls-5" x1="9.15" transform="translate(64.145 136.76)"></line><line id="Line_704" data-name="Line 704" class="cls-5" x1="2.294" transform="translate(50.847 136.76)"></line><line id="Line_705" data-name="Line 705" class="cls-5" x1="7.832" transform="translate(75.252 131.272)"></line><line id="Line_706" data-name="Line 706" class="cls-5" x1="13.258" transform="translate(58.505 131.272)"></line><line id="Line_707" data-name="Line 707" class="cls-5" x1="4.981" transform="translate(50.847 131.272)"></line><line id="Line_708" data-name="Line 708" class="cls-5" x1="8.881" transform="translate(74.211 125.787)"></line><line id="Line_709" data-name="Line 709" class="cls-5" x1="2.184" transform="translate(69.143 125.787)"></line><line id="Line_710" data-name="Line 710" class="cls-5" x1="4.981" transform="translate(50.847 125.787)"></line><line id="Line_711" data-name="Line 711" class="cls-5" x1="8.697" transform="translate(58.962 125.787)"></line><line id="Line_712" data-name="Line 712" class="cls-5" x1="2.717" transform="translate(80.327 120.301)"></line><line id="Line_713" data-name="Line 713" class="cls-5" x1="2.717" transform="translate(74.862 120.301)"></line><line id="Line_714" data-name="Line 714" class="cls-5" x1="0.854" transform="translate(71.069 120.301)"></line><line id="Line_715" data-name="Line 715" class="cls-5" x1="10.966" transform="translate(58.514 120.301)"></line><line id="Line_716" data-name="Line 716" class="cls-5" x1="4.981" transform="translate(50.847 120.301)"></line><line id="Line_717" data-name="Line 717" class="cls-5" x1="6.938" transform="translate(152.539 136.76)"></line><line id="Line_718" data-name="Line 718" class="cls-5" x1="10.982" transform="translate(131.789 136.76)"></line><line id="Line_719" data-name="Line 719" class="cls-5" x1="3.862" transform="translate(145.797 136.76)"></line><line id="Line_720" data-name="Line 720" class="cls-5" x1="2.294" transform="translate(126.756 136.76)"></line><line id="Line_721" data-name="Line 721" class="cls-5" x1="10.144" transform="translate(149.349 131.272)"></line><line id="Line_722" data-name="Line 722" class="cls-5" x1="12.25" transform="translate(134.308 131.272)"></line><line id="Line_723" data-name="Line 723" class="cls-5" x1="4.981" transform="translate(126.746 131.272)"></line><line id="Line_724" data-name="Line 724" class="cls-5" x1="4.612" transform="translate(154.852 125.787)"></line><line id="Line_725" data-name="Line 725" class="cls-5" x1="9.463" transform="translate(142.668 125.787)"></line><line id="Line_726" data-name="Line 726" class="cls-5" x1="4.981" transform="translate(126.746 125.787)"></line><line id="Line_727" data-name="Line 727" class="cls-5" x1="4.981" transform="translate(134.78 125.787)"></line><line id="Line_728" data-name="Line 728" class="cls-5" x1="2.717" transform="translate(156.735 120.301)"></line><line id="Line_729" data-name="Line 729" class="cls-5" x1="2.717" transform="translate(151.269 120.301)"></line><line id="Line_730" data-name="Line 730" class="cls-5" x1="0.854" transform="translate(147.481 120.301)"></line><line id="Line_731" data-name="Line 731" class="cls-5" x1="10.966" transform="translate(134.313 120.301)"></line><line id="Line_732" data-name="Line 732" class="cls-5" x1="4.981" transform="translate(126.746 120.301)"></line><line id="Line_733" data-name="Line 733" class="cls-5" x2="12.073" transform="translate(87.201 120.301)"></line><line id="Line_734" data-name="Line 734" class="cls-5" x2="5.492" transform="translate(109.385 120.301)"></line><line id="Line_735" data-name="Line 735" class="cls-5" x2="3.379" transform="translate(102.737 120.301)"></line><line id="Line_736" data-name="Line 736" class="cls-5" x2="2.294" transform="translate(117.627 120.301)"></line><line id="Line_737" data-name="Line 737" class="cls-5" x2="15.669" transform="translate(87.191 125.787)"></line><line id="Line_738" data-name="Line 738" class="cls-5" x2="7.03" transform="translate(105.332 125.787)"></line><line id="Line_739" data-name="Line 739" class="cls-5" x2="4.981" transform="translate(114.958 125.787)"></line><line id="Line_740" data-name="Line 740" class="cls-5" x2="8.881" transform="translate(87.209 131.272)"></line><line id="Line_741" data-name="Line 741" class="cls-5" x2="2.184" transform="translate(98.938 131.272)"></line><line id="Line_742" data-name="Line 742" class="cls-5" x2="4.981" transform="translate(114.958 131.272)"></line><line id="Line_743" data-name="Line 743" class="cls-5" x2="8.697" transform="translate(103.233 131.272)"></line><line id="Line_744" data-name="Line 744" class="cls-5" x2="2.717" transform="translate(87.224 136.76)"></line><line id="Line_745" data-name="Line 745" class="cls-5" x2="2.717" transform="translate(92.692 136.76)"></line><line id="Line_746" data-name="Line 746" class="cls-5" x2="12.695" transform="translate(99.707 136.76)"></line><line id="Line_747" data-name="Line 747" class="cls-5" x2="4.981" transform="translate(114.958 136.76)"></line><path id="Path_14547" data-name="Path 14547" class="cls-3" d="M201.241,90.452H31.814v-2.5a7.426,7.426,0,0,1,7.425-7.425H193.815a7.425,7.425,0,0,1,7.425,7.425Z" transform="translate(-31.814 -6.328)"></path><rect id="Rectangle_12022" data-name="Rectangle 12022" class="cls-4" width="3.784" height="3.784" transform="translate(14.143 78.078)"></rect><rect id="Rectangle_12023" data-name="Rectangle 12023" class="cls-4" width="3.784" height="3.784" transform="translate(19.409 78.078)"></rect><rect id="Rectangle_12024" data-name="Rectangle 12024" class="cls-6" width="32.997" height="21.971" transform="translate(10.924 95.145)"></rect><rect id="Rectangle_12025" data-name="Rectangle 12025" class="cls-6" width="33.868" height="21.971" transform="translate(49.978 95.145)"></rect><rect id="Rectangle_12026" data-name="Rectangle 12026" class="cls-3" width="72.921" height="21.971" transform="translate(87.012 95.145)"></rect><rect id="Rectangle_12027" data-name="Rectangle 12027" class="cls-3" width="72.921" height="21.971" transform="translate(10.924 141.341)"></rect><rect id="Rectangle_12028" data-name="Rectangle 12028" class="cls-6" width="72.921" height="21.971" transform="translate(87.012 141.341)"></rect></g></g></svg> 